<svg width="809" height="175" viewBox="0 0 809 175" fill="none" xmlns="http://www.w3.org/2000/svg">
<g clip-path="url(#clip0_142_2019)">
<rect width="809" height="174.32" rx="19.2619" fill="#702DFF"/>
<path d="M696.318 43.3394C696.318 43.3394 698.444 63.179 706.723 71.4585C715.002 79.7379 734.842 81.8635 734.842 81.8635C734.842 81.8635 715.002 83.9891 706.723 92.2685C698.444 100.548 696.318 120.388 696.318 120.388C696.318 120.388 694.192 100.548 685.913 92.2685C677.634 83.9891 657.794 81.8635 657.794 81.8635C657.794 81.8635 677.634 79.7379 685.913 71.4585C694.192 63.179 696.318 43.3394 696.318 43.3394Z" fill="white" fill-opacity="0.25"/>
<path d="M763.736 89.5676C763.736 89.5676 765.861 109.407 774.141 117.687C782.42 125.966 802.26 128.092 802.26 128.092C802.26 128.092 782.42 130.217 774.141 138.497C765.861 146.776 763.736 166.616 763.736 166.616C763.736 166.616 761.61 146.776 753.331 138.497C745.051 130.217 725.212 128.092 725.212 128.092C725.212 128.092 745.051 125.966 753.331 117.687C761.61 109.407 763.736 89.5676 763.736 89.5676Z" fill="white" fill-opacity="0.1"/>
<path d="M627.937 117.498C627.937 117.498 630.063 146.761 638.342 158.973C646.621 171.185 666.461 174.32 666.461 174.32C666.461 174.32 646.621 177.455 638.342 189.667C630.063 201.88 627.937 231.143 627.937 231.143C627.937 231.143 625.812 201.88 617.532 189.667C609.253 177.455 589.413 174.32 589.413 174.32C589.413 174.32 609.253 171.185 617.532 158.973C625.812 146.761 627.937 117.498 627.937 117.498Z" fill="white" fill-opacity="0.1"/>
<path d="M754.586 -56.8225C754.586 -56.8225 756.207 -27.5592 762.52 -15.3472C768.833 -3.13509 783.961 0.000112057 783.961 0.000112057C783.961 0.000112057 768.833 3.13532 762.52 15.3474C756.207 27.5594 754.586 56.8227 754.586 56.8227C754.586 56.8227 752.965 27.5594 746.652 15.3474C740.339 3.13532 725.212 0.000112057 725.212 0.000112057C725.212 0.000112057 740.339 -3.13509 746.652 -15.3472C752.965 -27.5592 754.586 -56.8225 754.586 -56.8225Z" fill="white" fill-opacity="0.1"/>
<path d="M628.421 19.262C628.421 19.262 630.042 34.1417 636.355 40.3513C642.668 46.5609 657.795 48.1551 657.795 48.1551C657.795 48.1551 642.668 49.7493 636.355 55.9588C630.042 62.1684 628.421 77.0482 628.421 77.0482C628.421 77.0482 626.8 62.1684 620.487 55.9588C614.174 49.7493 599.046 48.1551 599.046 48.1551C599.046 48.1551 614.174 46.5609 620.487 40.3513C626.8 34.1417 628.421 19.262 628.421 19.262Z" fill="white" fill-opacity="0.1"/>
</g>
<defs>
<clipPath id="clip0_142_2019">
<rect width="809" height="174.32" rx="19.2619" fill="white"/>
</clipPath>
</defs>
</svg>
