<svg width="226" height="129" viewBox="0 0 226 129" fill="none" xmlns="http://www.w3.org/2000/svg">
<rect x="0.34082" y="108.4" width="34.4772" height="20.506" fill="#962DFF"/>
<rect x="0.34082" y="98.147" width="34.4772" height="10.253" fill="#C893FD"/>
<rect x="0.34082" y="89.8672" width="34.4772" height="8.27951" fill="#E0C6FD"/>
<path d="M0.34082 89.0993C0.34082 86.6582 2.31979 84.6792 4.76097 84.6792H30.3978C32.839 84.6792 34.818 86.6582 34.818 89.0993V89.8671H0.34082V89.0993Z" fill="#F0E5FC"/>
<rect x="48.0781" y="94.4858" width="34.4772" height="34.4198" fill="#962DFF"/>
<rect x="48.0781" y="77.7686" width="34.4772" height="16.7176" fill="#C893FD"/>
<rect x="48.0781" y="58.8149" width="34.4772" height="18.9532" fill="#E0C6FD"/>
<path d="M48.0781 54.0906C48.0781 51.6494 50.0571 49.6704 52.4983 49.6704H78.1351C80.5763 49.6704 82.5553 51.6494 82.5553 54.0906V58.8152H48.0781V54.0906Z" fill="#F0E5FC"/>
<rect x="95.8164" y="84.4761" width="34.4772" height="44.4293" fill="#962DFF"/>
<rect x="95.8164" y="63.8496" width="34.4772" height="20.6271" fill="#C893FD"/>
<rect x="95.8164" y="40.6323" width="34.4772" height="23.2172" fill="#E0C6FD"/>
<path d="M95.8164 32.4641C95.8164 30.0229 97.7954 28.0439 100.237 28.0439H125.873C128.315 28.0439 130.294 30.0229 130.294 32.4641V40.6326H95.8164V32.4641Z" fill="#F0E5FC"/>
<rect x="143.554" y="77.25" width="34.4772" height="51.6553" fill="#962DFF"/>
<rect x="143.554" y="50.8916" width="34.4772" height="26.358" fill="#C893FD"/>
<rect x="143.554" y="21.9438" width="34.4772" height="28.9481" fill="#E0C6FD"/>
<path d="M143.554 13.7751C143.554 11.3339 145.533 9.35498 147.974 9.35498H173.611C176.052 9.35498 178.031 11.3339 178.031 13.7751V21.9436H143.554V13.7751Z" fill="#F0E5FC"/>
<rect x="191.291" y="82.3618" width="34.4772" height="46.5439" fill="#962DFF"/>
<rect x="191.291" y="59.9355" width="34.4772" height="22.426" fill="#C893FD"/>
<rect x="191.291" y="36.5132" width="34.4772" height="23.4226" fill="#E0C6FD"/>
<path d="M191.291 28.3933C191.291 25.9521 193.27 23.9731 195.711 23.9731H221.348C223.789 23.9731 225.768 25.9521 225.768 28.3933V36.5129H191.291V28.3933Z" fill="#F0E5FC"/>
</svg>
